<?xml version="1.0" encoding="iso-8859-1"?>
<!-- Generator: Adobe Illustrator 19.0.0, SVG Export Plug-In . SVG Version: 6.00 Build 0)  -->
<svg version="1.1" id="Layer_1" xmlns="http://www.w3.org/2000/svg" xmlns:xlink="http://www.w3.org/1999/xlink" x="0px" y="0px"
	 viewBox="0 0 512 512" style="enable-background:new 0 0 512 512;" xml:space="preserve">
<path style="fill:#1E0478;" d="M512,58.848V369.66c0,17.043-13.868,30.911-30.911,30.911H326.828v22.496
	c0,20.619,16.772,37.391,37.391,37.391h34.004c6.515,0,11.803,5.276,11.803,11.803c0,6.515-5.288,11.803-11.803,11.803H113.778
	c-6.515,0-11.803-5.288-11.803-11.803c0-6.527,5.288-11.803,11.803-11.803h34.003c20.619,0,37.391-16.772,37.391-37.391v-22.496
	H30.911C13.868,400.571,0,386.703,0,369.66V58.848c0-17.043,13.868-30.911,30.911-30.911h450.178
	C498.132,27.937,512,41.805,512,58.848z M488.395,369.66v-62.023H23.605v62.023c0,4.037,3.281,7.306,7.306,7.306h450.178
	C485.114,376.966,488.395,373.696,488.395,369.66z M488.395,284.031V58.848c0-4.025-3.281-7.306-7.306-7.306H30.911
	c-4.025,0-7.306,3.281-7.306,7.306v225.183H488.395z M195.924,460.458h120.151c-8.038-10.339-12.853-23.31-12.853-37.391v-22.496
	h-94.445v22.496C208.778,437.147,203.962,450.119,195.924,460.458z"/>
<path style="fill:#9B8CCC;" d="M488.395,307.637v62.023c0,4.037-3.281,7.306-7.306,7.306H30.911c-4.025,0-7.306-3.269-7.306-7.306
	v-62.023H488.395z M268.735,342.301c0-7.034-5.701-12.735-12.735-12.735c-7.034,0-12.735,5.701-12.735,12.735
	c0,7.034,5.701,12.735,12.735,12.735C263.034,355.036,268.735,349.336,268.735,342.301z"/>
<path style="fill:#94E7EF;" d="M488.395,58.848v225.183H23.605V58.848c0-4.025,3.281-7.306,7.306-7.306h450.178
	C485.114,51.542,488.395,54.823,488.395,58.848z M325.683,174.29c4.603-4.615,4.603-12.086,0-16.701
	c-4.615-4.603-12.086-4.603-16.701,0l-33.225,33.236c-4.615,4.603-4.615,12.074,0,16.689c2.302,2.302,5.323,3.458,8.345,3.458
	s6.043-1.157,8.345-3.458L325.683,174.29z M276.242,125.946c4.603-4.603,4.603-12.086,0-16.689c-4.615-4.615-12.086-4.615-16.701,0
	l-83.41,83.409c-4.603,4.615-4.603,12.086,0,16.689c2.302,2.313,5.323,3.458,8.344,3.458s6.043-1.145,8.344-3.458L276.242,125.946z"
	/>
<path style="fill:#1E0478;" d="M325.683,157.589c4.603,4.615,4.603,12.086,0,16.701l-33.236,33.225
	c-2.302,2.302-5.323,3.458-8.344,3.458s-6.043-1.157-8.345-3.458c-4.615-4.615-4.615-12.086,0-16.689l33.225-33.236
	C313.597,152.986,321.068,152.986,325.683,157.589z"/>
<path style="fill:#6F7CCD;" d="M316.076,460.458H195.924c8.038-10.339,12.853-23.31,12.853-37.391v-22.496h94.445v22.496
	C303.223,437.147,308.038,450.119,316.076,460.458z"/>
<g>
	<path style="fill:#1E0478;" d="M276.242,109.257c4.603,4.603,4.603,12.086,0,16.689l-83.421,83.41
		c-2.302,2.313-5.323,3.458-8.344,3.458s-6.043-1.145-8.344-3.458c-4.603-4.603-4.603-12.074,0-16.689l83.41-83.41
		C264.156,104.643,271.627,104.643,276.242,109.257z"/>
	<circle style="fill:#1E0478;" cx="256" cy="342.301" r="12.735"/>
</g>
<g>
</g>
<g>
</g>
<g>
</g>
<g>
</g>
<g>
</g>
<g>
</g>
<g>
</g>
<g>
</g>
<g>
</g>
<g>
</g>
<g>
</g>
<g>
</g>
<g>
</g>
<g>
</g>
<g>
</g>
</svg>
