<svg height="512" viewBox="0 0 64 64" width="512" xmlns="http://www.w3.org/2000/svg"><g id="Filled_outline" data-name="Filled outline"><path d="m52 61a4 4 0 0 1 -4-4v-4h-36v-46h44v50a4 4 0 0 1 -4 4z" fill="#fef9e1"/><path d="m27 41h24v6h-24z" fill="#cdeef6"/><path d="m27 28h24v6h-24z" fill="#cdeef6"/><path d="m12 61a4 4 0 0 1 -4-4v-4h40v4a4 4 0 0 0 4 4z" fill="#e9a971"/><path d="m17 3h4v8h-4z" fill="#a46634"/><path d="m47 3h4v8h-4z" fill="#a46634"/><path d="m11 56h2v2h-2z" fill="#fef9e1"/><path d="m15 56h2v2h-2z" fill="#fef9e1"/><path d="m21 22h-2v-4.8l-2.445 1.63-1.11-1.664 3-2a1.006 1.006 0 0 1 .555-.166h1a1 1 0 0 1 1 1z" fill="#cd4b4c"/><path d="m17 21h6v2h-6z" fill="#cd4b4c"/><path d="m23 35h-6a1 1 0 0 1 -1-1v-1a1 1 0 0 1 .485-.857l4.515-2.709v-1.434h-3v2h-2v-3a1 1 0 0 1 1-1h5a1 1 0 0 1 1 1v3a1 1 0 0 1 -.485.857l-3.571 2.143h4.056z" fill="#ebbc69"/><path d="m22 49h-6v-2h5v-6h-5v-2h6a1 1 0 0 1 1 1v8a1 1 0 0 1 -1 1z" fill="#5181be"/><path d="m17 43h5v2h-5z" fill="#5181be"/><path d="m27 16h24v6h-24z" fill="#cd4b4c"/><path d="m27 28h20v6h-20z" fill="#ebbc69"/><path d="m27 41h16v6h-16z" fill="#5181be"/><g fill="#e9a971"><path d="m24 10h2v2h-2z"/><path d="m28 10h12v2h-12z"/><path d="m42 10h2v2h-2z"/></g><path d="m56 6h-4v-3a1 1 0 0 0 -1-1h-4a1 1 0 0 0 -1 1v3h-24v-3a1 1 0 0 0 -1-1h-4a1 1 0 0 0 -1 1v3h-4a1 1 0 0 0 -1 1v45h-3a1 1 0 0 0 -1 1v4a5.006 5.006 0 0 0 5 5h40a5.006 5.006 0 0 0 5-5v-50a1 1 0 0 0 -1-1zm-8-2h2v6h-2zm-30 0h2v6h-2zm-6 56a3 3 0 0 1 -3-3v-3h38v3a4.948 4.948 0 0 0 1.026 3zm43-3a3 3 0 0 1 -6 0v-4a1 1 0 0 0 -1-1h-35v-44h3v3a1 1 0 0 0 1 1h4a1 1 0 0 0 1-1v-3h24v3a1 1 0 0 0 1 1h4a1 1 0 0 0 1-1v-3h3z"/><path d="m11 56h2v2h-2z"/><path d="m15 56h2v2h-2z"/><path d="m21 16a1 1 0 0 0 -1-1h-1a1.006 1.006 0 0 0 -.555.168l-3 2 1.11 1.664 2.445-1.632v3.8h-2v2h6v-2h-2z"/><path d="m22 26h-5a1 1 0 0 0 -1 1v3h2v-2h3v1.434l-4.515 2.709a1 1 0 0 0 -.485.857v1a1 1 0 0 0 1 1h6v-2h-4.056l3.571-2.143a1 1 0 0 0 .485-.857v-3a1 1 0 0 0 -1-1z"/><path d="m22 39h-6v2h5v2h-4v2h4v2h-5v2h6a1 1 0 0 0 1-1v-8a1 1 0 0 0 -1-1z"/><path d="m26 23h26v-8h-26zm2-6h22v4h-22z"/><path d="m26 40v8h26v-8zm16 6h-14v-4h14zm8 0h-6v-4h6z"/><path d="m26 27v8h26v-8zm20 6h-18v-4h18zm4 0h-2v-4h2z"/><path d="m24 10h2v2h-2z"/><path d="m28 10h12v2h-12z"/><path d="m42 10h2v2h-2z"/></g></svg>