<svg height="511pt" viewBox="1 -24 511.999 511" width="511pt" xmlns="http://www.w3.org/2000/svg"><path d="m480.46875 232.476562c0 123.96875-100.496094 224.46875-224.46875 224.46875s-224.46875-100.5-224.46875-224.46875c0-123.972656 100.496094-224.46875 224.46875-224.46875s224.46875 100.496094 224.46875 224.46875zm0 0" fill="#80e0dc"/><path d="m480.46875 232.476562c0 123.96875-100.496094 224.46875-224.46875 224.46875-22.953125 0-45.105469-3.445312-65.964844-9.851562 9.628906 1.261719 19.449219 1.914062 29.429688 1.914062 123.96875 0 224.46875-100.5 224.46875-224.46875 0-101.019531-66.726563-186.441406-158.503906-214.621093 110.066406 14.414062 195.039062 108.566406 195.039062 222.558593zm0 0" fill="#00a8b0"/><path d="m493.40625 289.183594h-474.8125c-6.121094 0-11.085938-4.960938-11.085938-11.085938v-67.570312c0-6.121094 4.960938-11.085938 11.085938-11.085938h474.8125c6.125 0 11.085938 4.964844 11.085938 11.085938v67.570312c0 6.125-4.960938 11.085938-11.085938 11.085938zm0 0" fill="#e7e7e7"/><path d="m493.40625 289.53125h-87.257812v-91.089844h87.257812c6.121094 0 11.085938 4.964844 11.085938 11.085938v68.917968c0 6.125-4.960938 11.085938-11.085938 11.085938zm0 0" fill="#c9f0ff"/><path d="m458.6875 223.109375 4.496094 9.105469c.546875 1.109375 1.605468 1.875 2.828125 2.054687l10.050781 1.460938c3.082031.445312 4.3125 4.234375 2.082031 6.40625l-7.273437 7.089843c-.886719.863282-1.289063 2.105469-1.078125 3.324219l1.714843 10.007813c.527344 3.070312-2.695312 5.410156-5.449218 3.960937l-8.992188-4.726562c-1.09375-.574219-2.402344-.574219-3.496094 0l-8.988281 4.726562c-2.753906 1.449219-5.976562-.890625-5.449219-3.960937l1.714844-10.007813c.210938-1.21875-.195312-2.460937-1.078125-3.324219l-7.273437-7.089843c-2.230469-2.171875-1-5.960938 2.082031-6.40625l10.050781-1.460938c1.222656-.179687 2.28125-.945312 2.828125-2.054687l4.496094-9.105469c1.375-2.792969 5.359375-2.792969 6.734375 0zm0 0" fill="#ffd86e"/><path d="m493.40625 289.183594h-13.527344v-89.738282h13.527344c6.121094 0 11.085938 4.960938 11.085938 11.085938v67.570312c0 6.121094-4.960938 11.082032-11.085938 11.082032zm0 0" fill="#9ae7fd"/><path d="m493.40625 190.933594h-9.140625c-8.296875-46.148438-30.375-88.632813-64.234375-122.488282-43.8125-43.816406-102.070312-67.945312-164.03125-67.945312s-120.21875 24.128906-164.03125 67.945312c-34.101562 34.101563-56.261719 76.953126-64.417969 123.492188h-8.957031c-10.253906 0-18.59375 8.339844-18.59375 18.59375v67.570312c0 10.25 8.339844 18.59375 18.59375 18.59375h14.503906c12.386719 43.015626 37.085938 81.980469 71.8125 111.8125 3.144532 2.699219 7.882813 2.34375 10.585938-.800781 2.703125-3.148437 2.34375-7.886719-.800782-10.589843-8.984374-7.714844-17.246093-16.089844-24.75-25.011719 11.476563-4.835938 23.203126-8.824219 35.015626-12.09375 5.609374 9.898437 11.902343 19.449219 18.882812 28.570312 15.292969 19.988281 32.5625 37.574219 50.96875 52.070313-15.292969-4.480469-30.082031-10.636719-44.03125-18.390625-3.625-2.011719-8.195312-.707031-10.207031 2.917969-2.015625 3.625-.710938 8.195312 2.914062 10.210937 34.222657 19.011719 73.128907 29.0625 112.511719 29.0625 61.960938 0 120.214844-24.128906 164.03125-67.945313 28.144531-28.140624 48.140625-62.253906 58.859375-99.46875h14.515625c10.253906 0 18.59375-8.339843 18.59375-18.59375v-68.917968c0-10.25-8.339844-18.59375-18.59375-18.59375zm-24.425781 0h-52.226563c-.625-3.890625-1.316406-7.78125-2.121094-11.667969-4.460937-21.535156-11.433593-42.097656-20.804687-61.507813 1.382813-.378906 2.773437-.75 4.148437-1.140624 9.558594-2.734376 21.726563-6.453126 33.679688-11.566407 18.667969 25.628907 31.335938 54.839844 37.324219 85.882813zm-67.277344 1.003906h-77.578125c-.257812-3.765625-.539062-7.53125-.871094-11.289062-1.488281-16.796876-3.683594-33.058594-6.511718-48.609376 21.519531-2.234374 42.304687-5.730468 62.246093-10.472656 9.511719 19.097656 16.523438 39.417969 20.941407 60.746094.664062 3.203125 1.238281 6.414062 1.773437 9.625zm7.710937-112.878906c4.421876 4.421875 8.621094 9.007812 12.609376 13.730468-10 4.015626-20.0625 7.070313-28.175782 9.390626-2.351562.671874-4.71875 1.316406-7.09375 1.949218-4.746094-8.507812-9.960937-16.777344-15.671875-24.777344-14.964843-20.953124-32.710937-39.296874-52.972656-54.855468 34.136719 10.148437 65.417969 28.675781 91.304687 54.5625zm-130.261718-62.316406c31.882812 17.921874 58.703125 41.914062 79.710937 71.335937 4.578125 6.417969 8.816407 13.023437 12.738281 19.789063-18.542968 4.230468-37.835937 7.367187-57.792968 9.386718-8.691406-40.464844-21.855469-75.320312-38.34375-100.867187 1.230468.105469 2.460937.222656 3.6875.355469zm-23.152344-1.226563c.183594 0 .363281.003906.546875.003906 18.242187 24.074219 32.828125 60.035157 42.222656 103.039063-16.039062 1.15625-32.46875 1.628906-49.261719 1.382812-11.398437-.164062-23.597656-.519531-36.296874-1.292968 9.394531-43.042969 23.988281-79.039063 42.242187-103.128907.183594 0 .363281-.003906.546875-.003906zm-19.464844.871094c-16.53125 25.605469-29.714844 60.566406-38.40625 101.148437-18.847656-1.640625-38.527344-4.355468-58.214844-8.839844 4.054688-7.058593 8.453126-13.941406 13.222657-20.621093 21.007812-29.417969 47.828125-53.410157 79.710937-71.335938 1.226563-.128906 2.457032-.246093 3.6875-.351562zm-41.335937 115.96875c-2.800781 15.453125-4.976563 31.609375-6.453125 48.292969-.332032 3.757812-.613282 7.523437-.867188 11.289062h-77.589844c.53125-3.210938 1.117188-6.421875 1.78125-9.625 4.351563-21.015625 11.234376-41.046875 20.53125-59.902344 21.195313 5.085938 42.371094 8.121094 62.597657 9.945313zm-92.613281-53.296875c25.886718-25.886719 57.167968-44.414063 91.304687-54.5625-20.265625 15.558594-38.011719 33.902344-52.972656 54.855468-5.882813 8.238282-11.238281 16.769532-16.09375 25.550782-11.769531-3.261719-23.457031-7.242188-34.890625-12.0625 4-4.738282 8.214844-9.339844 12.652344-13.78125zm-22.25 26.007812c12.289062 5.394532 24.84375 9.816406 37.472656 13.445313-9.1875 19.191406-16.039063 39.496093-20.441406 60.753906-.871094 4.21875-1.625 8.445313-2.285157 12.671875h-52.257812c5.90625-31.414062 18.648437-60.972656 37.511719-86.871094zm-61.742188 176.613282c-1.972656 0-3.578125-1.605469-3.578125-3.582032v-67.570312c0-1.972656 1.605469-3.578125 3.578125-3.578125h216.71875c4.148438 0 7.507812-3.359375 7.507812-7.507813 0-4.144531-3.359374-7.507812-7.507812-7.507812h-32.390625c.234375-3.320313.488281-6.644532.78125-9.960938 1.488281-16.800781 3.691406-33.015625 6.535156-48.464844 13.695313.878907 26.820313 1.269532 39.054688 1.445313 2.960937.042969 5.914062.066406 8.859375.066406 14.8125 0 29.347656-.554687 43.589844-1.632812 2.851562 15.484375 5.0625 31.742187 6.554687 48.585937.292969 3.316406.550781 6.640625.785156 9.960938h-26.894531c-4.144531 0-7.507812 3.363281-7.507812 7.507812 0 4.148438 3.363281 7.507813 7.507812 7.507813h116.453125v74.726562h-380.046875zm378.246094 15.011718c-4.324219 16.140625-10.308594 31.789063-17.898438 46.679688-19.90625-4.730469-40.644531-8.234375-62.125-10.46875 2.15625-11.738282 3.925782-23.839844 5.292969-36.207032h74.730469zm-89.820313 0c-1.355469 11.925782-3.097656 23.582032-5.210937 34.878906-17.09375-1.296874-34.609375-1.835937-52.515625-1.574218-12.257813.175781-25.40625.566406-39.125 1.449218-2.101563-11.257812-3.835938-22.871093-5.1875-34.753906zm-226.636719 63.175782c-13.945312-19.21875-24.617187-40.5625-31.621093-63.175782h50.90625c4.3125 17.171875 10.367187 33.847656 18.136719 49.75-12.613282 3.625-25.152344 8.039063-37.421876 13.425782zm34.792969-63.175782h74.703125c1.355469 12.265625 3.113282 24.269532 5.246094 35.914063-20.195312 1.820312-41.335938 4.855469-62.492188 9.925781-7.386718-14.636719-13.214843-30.003906-17.457031-45.839844zm117.597657 151.472656c-28.089844-15.824218-54.703126-39.558593-77.003907-68.707031-5.710937-7.457031-10.917969-15.230469-15.652343-23.25 19.605468-4.453125 39.199218-7.152343 57.96875-8.789062 2.96875 13.636719 6.488281 26.691406 10.542968 38.960937 5.984375 18.082032 15.378906 42.203125 28.011719 62.175782-1.289063-.113282-2.578125-.25-3.867187-.390626zm23.226562 1.273438c-.183594 0-.363281-.007812-.546875-.007812-11.820313-15.660157-23.0625-39.035157-32.566406-67.765626-3.691407-11.160156-6.914063-23.003906-9.671875-35.363281 12.699218-.769531 24.894531-1.128906 36.292968-1.292969 16.792969-.238281 33.21875.234376 49.257813 1.390626-2.753906 12.324218-5.972656 24.136718-9.652344 35.265624-9.5 28.730469-20.746093 52.105469-32.566406 67.765626-.183594.003906-.363281.007812-.546875.007812zm19.34375-.859375c12.640625-19.976563 22.042969-44.109375 28.023438-62.199219 4.03125-12.183594 7.527343-25.136718 10.480468-38.671875 19.871094 2.011719 39.078125 5.125 57.542969 9.328125-4.601563 7.726563-9.648437 15.222656-15.160156 22.421875-22.324219 29.175781-48.964844 52.929688-77.082031 68.753907-1.265626.132812-2.535157.253906-3.804688.367187zm134.070312-62.6875c-26.15625 26.15625-57.820312 44.796875-92.367187 54.871094 18.457031-14.515625 35.777344-32.140625 51.109375-52.179688 6.800781-8.882812 12.941406-18.179687 18.4375-27.804687 2.429688.648437 4.851562 1.308594 7.253906 1.992187 8.105469 2.320313 18.160156 5.375 28.15625 9.386719-3.988281 4.722656-8.167968 9.316406-12.589844 13.734375zm22.21875-26c-11.945312-5.105469-24.105468-8.824219-33.65625-11.554687-1.375-.394532-2.765624-.761719-4.148437-1.140626 7.894531-16.019531 14.039063-32.839843 18.414063-50.15625h50.953124c-6.96875 22.472657-17.585937 43.664063-31.5625 62.851563zm65.351563-81.789063c0 1.972657-1.605469 3.578126-3.578125 3.578126h-79.753906v-74.730469h79.753906c1.972656 0 3.578125 1.609375 3.578125 3.582031zm0 0"/><path d="m477.140625 228.300781-8.097656-1.175781-3.621094-7.339844c-1.914063-3.875-5.78125-6.277344-10.101563-6.277344-4.320312 0-8.191406 2.40625-10.101562 6.277344l-3.621094 7.339844-8.097656 1.175781c-4.277344.621094-7.757812 3.558594-9.09375 7.664063-1.335938 4.109375-.242188 8.535156 2.851562 11.550781l5.859376 5.710937-1.382813 8.066407c-.734375 4.253906.984375 8.476562 4.480469 11.015625 3.492187 2.539062 8.035156 2.871094 11.863281.859375l7.242187-3.808594 7.242188 3.808594c1.664062.871093 3.460938 1.304687 5.253906 1.304687 2.324219 0 4.636719-.730468 6.609375-2.164062 3.492188-2.539063 5.210938-6.761719 4.480469-11.015625l-1.382812-8.066407 5.859374-5.710937c3.09375-3.015625 4.183594-7.441406 2.851563-11.550781-1.335937-4.105469-4.820313-7.042969-9.09375-7.664063zm-11.511719 15.550781c-2.652344 2.589844-3.863281 6.316407-3.238281 9.96875l.433594 2.519532-2.261719-1.1875c-3.28125-1.726563-7.199219-1.726563-10.484375 0l-2.261719 1.1875.429688-2.519532c.628906-3.652343-.582032-7.378906-3.238282-9.96875l-1.828124-1.785156 2.527343-.367187c3.667969-.53125 6.839844-2.835938 8.484375-6.160157l1.128906-2.292968 1.132813 2.292968c1.640625 3.324219 4.8125 5.628907 8.480469 6.160157l2.527344.367187zm0 0"/><path d="m56.816406 258.835938c0 1.109374-1.667968 2.273437-3.609375 2.273437-2.105469 0-3.550781-1.164063-3.550781-2.273437v-37.222657c0-1.332031 1.445312-2.222656 3.550781-2.222656 1.941407 0 3.609375.890625 3.609375 2.222656v17.027344c.996094-2.160156 3.492188-4.214844 6.988282-4.214844 5.101562 0 9.539062 5.105469 9.539062 11.261719v13.144531c0 1.5-1.828125 2.277344-3.605469 2.277344-1.664062 0-3.550781-.777344-3.550781-2.277344v-13.144531c0-2.496094-2.21875-4.992188-4.824219-4.992188-2.273437 0-4.550781 1.882813-4.550781 4.992188v13.148438zm0 0"/><path d="m89.101562 252.121094c0 2.164062.777344 2.941406 3.109376 2.941406h2.164062c2.050781 0 3.050781 1.5 3.050781 2.996094 0 1.554687-1 3.050781-3.050781 3.050781h-2.164062c-6.65625 0-10.261719-2.71875-10.261719-8.988281v-26.902344c0-1.332031 1.882812-2.21875 3.550781-2.21875 1.828125 0 3.605469.886719 3.605469 2.21875v9.539062h6.546875c1.164062 0 1.828125 1.332032 1.828125 2.609376 0 1.328124-.664063 2.605468-1.828125 2.605468h-6.546875v12.148438zm0 0"/><path d="m111.683594 252.121094c0 2.164062.773437 2.941406 3.105468 2.941406h2.164063c2.050781 0 3.050781 1.5 3.050781 2.996094 0 1.554687-1 3.050781-3.050781 3.050781h-2.164063c-6.65625 0-10.261718-2.71875-10.261718-8.988281v-26.902344c0-1.332031 1.886718-2.21875 3.550781-2.21875 1.832031 0 3.605469.886719 3.605469 2.21875v9.539062h6.546875c1.164062 0 1.828125 1.332032 1.828125 2.609376 0 1.328124-.664063 2.605468-1.828125 2.605468h-6.546875zm0 0"/><path d="m133.929688 236.976562v1.664063c1.273437-2.160156 3.9375-4.214844 7.488281-4.214844 5.546875 0 9.929687 5.105469 9.929687 11.261719v4.546875c0 5.9375-4.546875 11.375-9.707031 11.375-3.328125 0-6.214844-2.109375-7.265625-4.382813v13.867188c0 1.164062-1.664062 2.273438-3.664062 2.273438-2.050782 0-3.492188-1.109376-3.492188-2.273438v-34.117188c0-1.332031 1.496094-2.21875 3.382812-2.21875 1.941407 0 3.328126.886719 3.328126 2.21875zm10.261718 8.710938c0-2.496094-2.273437-4.992188-5.046875-4.992188-2.328125 0-4.769531 1.882813-4.769531 4.992188v5.546875c0 1.164063 2.050781 4.105469 4.878906 4.105469 2.609375 0 4.9375-2.550782 4.9375-5.105469zm0 0"/><path d="m171.710938 253.785156c0-4.878906-13.148438-1.828125-13.148438-11.09375 0-3.9375 2.496094-8.265625 9.929688-8.265625 4.496093 0 8.820312 1.554688 8.820312 3.605469 0 1-.941406 3.441406-2.605469 3.441406-1.332031 0-3.050781-1.609375-6.101562-1.609375-2.773438 0-3.882813 1.386719-3.882813 2.496094 0 4.050781 13.3125 1.277344 13.3125 11.148437 0 4.941407-3.660156 8.101563-10.207031 8.101563-5.65625 0-10.039063-2.332031-10.039063-4.773437 0-1.164063.996094-3.160157 2.382813-3.160157 1.609375 0 2.832031 2.496094 7.492187 2.496094 3.269532 0 4.046876-1.277344 4.046876-2.386719zm0 0"/><path d="m192.738281 241.472656c0 1.996094-1.71875 3.769532-3.714843 3.769532-2.164063 0-3.773438-1.773438-3.773438-3.769532 0-2.054687 1.609375-3.773437 3.773438-3.773437 1.996093 0 3.714843 1.71875 3.714843 3.773437zm0 16.195313c0 2-1.71875 3.773437-3.714843 3.773437-2.164063 0-3.773438-1.773437-3.773438-3.773437 0-2.050781 1.609375-3.769531 3.773438-3.769531 1.996093 0 3.714843 1.71875 3.714843 3.769531zm0 0"/><path d="m224.414062 220.835938c0 .332031-.054687.664062-.222656.996093l-19.914062 40.277344c-.390625.773437-1.277344 1.21875-2.164063 1.21875-1.609375 0-2.664062-1.273437-2.664062-2.441406 0-.332031.113281-.664063.277343-.941407l19.914063-40.441406c.390625-.777344 1.167969-1.164062 2-1.164062 1.332031 0 2.773437.996094 2.773437 2.496094zm0 0"/><path d="m241.171875 220.835938c0 .332031-.058594.664062-.222656.996093l-19.917969 40.277344c-.386719.773437-1.273438 1.21875-2.160156 1.21875-1.609375 0-2.664063-1.273437-2.664063-2.441406 0-.332031.109375-.664063.277344-.941407l19.914063-40.441406c.390624-.777344 1.164062-1.164062 2-1.164062 1.328124 0 2.773437.996094 2.773437 2.496094zm0 0"/><path d="m273.238281 260.441406c-.390625.945313-1.609375 1.277344-2.828125 1.277344-1.386718 0-2.609375-.445312-2.941406-1.277344l-4.273438-12.09375-4.214843 12.039063c-.332031.886719-1.664063 1.332031-3.050781 1.332031-1.164063 0-2.386719-.332031-2.773438-1.332031l-8.542969-21.910157c-.222656-.445312-.277343-.777343-.277343-1.054687 0-1.71875 2.773437-2.941406 4.660156-2.941406.941406 0 1.773437.386719 2.050781 1.164062l5.546875 15.753907 4.160156-13.703126c.390625-1.273437 1.332032-1.441406 2.441406-1.441406 1.054688 0 2.054688.167969 2.441407 1.441406l4.105469 13.757813 5.601562-15.808594c.277344-.722656 1.054688-1.164062 2.054688-1.164062 1.773437 0 4.605468 1.21875 4.605468 2.996093 0 .332032-.054687.71875-.222656 1zm0 0"/><path d="m315.011719 260.441406c-.386719.945313-1.605469 1.277344-2.828125 1.277344-1.386719 0-2.605469-.445312-2.941406-1.277344l-4.269532-12.09375-4.21875 12.039063c-.332031.886719-1.660156 1.332031-3.050781 1.332031-1.164063 0-2.382813-.332031-2.773437-1.332031l-8.542969-21.910157c-.222657-.445312-.277344-.777343-.277344-1.054687 0-1.71875 2.773437-2.941406 4.660156-2.941406.941407 0 1.773438.386719 2.054688 1.164062l5.546875 15.753907 4.160156-13.703126c.386719-1.273437 1.332031-1.441406 2.441406-1.441406 1.054688 0 2.050782.167969 2.4375 1.441406l4.105469 13.757813 5.605469-15.808594c.277344-.722656 1.054687-1.164062 2.050781-1.164062 1.777344 0 4.605469 1.21875 4.605469 2.996093 0 .332032-.054688.71875-.222656 1zm0 0"/><path d="m356.789062 260.441406c-.386718.945313-1.605468 1.277344-2.828124 1.277344-1.386719 0-2.605469-.445312-2.941407-1.277344l-4.269531-12.09375-4.21875 12.039063c-.332031.886719-1.664062 1.332031-3.050781 1.332031-1.164063 0-2.382813-.332031-2.773438-1.332031l-8.542969-21.910157c-.222656-.445312-.277343-.777343-.277343-1.054687 0-1.71875 2.773437-2.941406 4.660156-2.941406.941406 0 1.773437.386719 2.054687 1.164062l5.546876 15.753907 4.160156-13.703126c.386718-1.273437 1.328125-1.441406 2.4375-1.441406 1.054687 0 2.054687.167969 2.441406 1.441406l4.105469 13.757813 5.605469-15.808594c.273437-.722656 1.054687-1.164062 2.050781-1.164062 1.773437 0 4.605469 1.21875 4.605469 2.996093 0 .332032-.054688.71875-.222657 1zm0 0"/></svg>