<svg height="512pt" viewBox="0 -1 512.00101 512" width="512pt" xmlns="http://www.w3.org/2000/svg"><path d="m504.449219 255.003906c0-136.664062-111.234375-247.449218-248.449219-247.449218s-248.445312 110.785156-248.445312 247.449218c0 136.660156 111.230468 247.445313 248.445312 247.445313s248.449219-110.785157 248.449219-247.445313zm0 0" fill="#4890e3"/><path d="m256 7.554688c-3.882812 0-7.742188.101562-11.582031.273437 131.835937 6.027344 236.867187 114.378906 236.867187 247.171875 0 132.796875-105.03125 241.148438-236.867187 247.175781 3.839843.175781 7.699219.273438 11.582031.273438 137.214844 0 248.449219-110.785157 248.449219-247.445313 0-136.664062-111.234375-247.449218-248.449219-247.449218zm0 0" fill="#2970d6"/><path d="m123.121094 198.136719c14.171875-109.253907 68.285156-190.582031 132.878906-190.582031 75.386719 0 136.503906 110.785156 136.503906 247.445312 0 136.664062-61.117187 247.449219-136.503906 247.449219s-136.5-110.785157-136.5-247.445313c0-8.550781.238281-17.003906.703125-25.332031" fill="#4890e3"/><path d="m256 7.554688c-4.074219 0-8.101562.339843-12.085938.976562 69.726563 11.089844 124.417969 117.191406 124.417969 246.46875 0 129.28125-54.691406 235.382812-124.417969 246.472656 3.984376.636719 8.011719.976563 12.085938.976563 75.386719 0 136.503906-110.785157 136.503906-247.449219 0-136.660156-61.117187-247.445312-136.503906-247.445312zm0 0" fill="#2970d6"/><path d="m484.882812 97.128906c0-19.878906-16.179687-35.992187-36.136718-35.992187-19.957032 0-36.136719 16.113281-36.136719 35.992187 0 19.875 16.179687 35.988282 36.136719 35.988282 19.957031 0 36.136718-16.113282 36.136718-35.988282zm0 0" fill="#00bf9e"/><path d="m448.746094 61.136719c-4.238282 0-8.304688.734375-12.085938 2.070312 14.015625 4.953125 24.050782 18.265625 24.050782 33.921875s-10.035157 28.96875-24.050782 33.921875c3.78125 1.335938 7.847656 2.070313 12.085938 2.070313 19.957031 0 36.136718-16.113282 36.136718-35.992188 0-19.875-16.179687-35.992187-36.136718-35.992187zm0 0" fill="#00a983"/><path d="m421.082031 349.230469c0-19.878907-16.179687-35.992188-36.136719-35.992188-19.960937 0-36.136718 16.113281-36.136718 35.992188 0 19.875 16.175781 35.988281 36.136718 35.988281 19.957032 0 36.136719-16.113281 36.136719-35.988281zm0 0" fill="#f45a3c"/><path d="m384.945312 314.03125c-3.621093 0-7.113281.535156-10.410156 1.519531 13.660156 5.136719 23.382813 18.273438 23.382813 33.679688 0 16.269531-10.847657 30.015625-25.730469 34.46875 3.96875 1.488281 8.265625 2.3125 12.757812 2.3125 19.957032 0 36.136719-16.113281 36.136719-35.992188 0-19.875-16.179687-35.988281-36.136719-35.988281zm0 0" fill="#e24a2a"/><path d="m119.5 86.558594c0-25.714844-20.933594-46.5625-46.75-46.5625-25.820312 0-46.75 20.847656-46.75 46.5625s20.929688 46.5625 46.75 46.5625c25.816406 0 46.75-20.847656 46.75-46.5625zm0 0" fill="#f9cd45"/><path d="m72.75 39.996094c-4 0-7.878906.503906-11.582031 1.441406 20.214843 5.132812 35.167969 23.386719 35.167969 45.121094 0 21.730468-14.953126 39.984375-35.167969 45.117187 3.703125.941407 7.582031 1.441407 11.582031 1.441407 25.816406 0 46.75-20.84375 46.75-46.558594s-20.933594-46.5625-46.75-46.5625zm0 0" fill="#f8b53c"/><path d="m105.683594 420.960938c0-18.113282-14.746094-32.800782-32.933594-32.800782-18.191406 0-32.933594 14.6875-32.933594 32.800782 0 18.117187 14.742188 32.800781 32.933594 32.800781 18.1875 0 32.933594-14.683594 32.933594-32.800781zm0 0" fill="#d0cfd1"/><path d="m72.75 388.160156c-4.078125 0-7.980469.746094-11.582031 2.09375 12.472656 4.667969 21.351562 16.652344 21.351562 30.710938 0 14.054687-8.878906 26.039062-21.351562 30.707031 3.601562 1.347656 7.503906 2.09375 11.582031 2.09375 18.1875 0 32.933594-14.6875 32.933594-32.800781 0-18.117188-14.746094-32.804688-32.933594-32.804688zm0 0" fill="#9c9b9d"/><path d="m478.558594 128.917969c8.53125-7.949219 13.878906-19.257813 13.878906-31.789063 0-24.011718-19.601562-43.542968-43.691406-43.542968-9.554688 0-18.398438 3.082031-25.597656 8.289062-46.472657-39.953125-105.511719-61.875-167.148438-61.875-53.160156 0-103.859375 15.976562-147.058594 46.257812-9.613281-8.582031-22.300781-13.816406-36.195312-13.816406-29.941406 0-54.300782 24.277344-54.300782 54.113282 0 15.386718 6.484376 29.28125 16.867188 39.144531-23.109375 39.066406-35.3125 83.691406-35.3125 129.304687 0 50.066406 14.476562 98.28125 41.914062 139.851563-6.011718 7.042969-9.652343 16.15625-9.652343 26.109375 0 22.25 18.164062 40.355468 40.488281 40.355468 8.621094 0 16.613281-2.710937 23.1875-7.304687 45.25 36.136719 101.894531 55.988281 160.0625 55.988281 68.375 0 132.660156-26.519531 181.007812-74.675781 48.359376-48.164063 74.992188-112.207031 74.992188-180.324219 0-44.34375-11.550781-87.804687-33.441406-126.085937zm-81.535156 178.472656c1.71875-14.699219 2.71875-29.714844 2.96875-44.835937h96.117187c-4.492187 22.128906-28.484375 43.777343-67.390625 60.355468-2.292969.976563-4.628906 1.925782-7 2.855469-5.664062-8.785156-14.402344-15.417969-24.695312-18.375zm-40.664063 41.839844c0-15.683594 12.824219-28.4375 28.585937-28.4375 15.757813 0 28.582032 12.753906 28.582032 28.4375 0 15.679687-12.824219 28.4375-28.582032 28.4375-15.761718 0-28.585937-12.757813-28.585937-28.4375zm-15.035156-2.398438c-24.621094 3.890625-50.808594 6.078125-77.769531 6.425781v-90.703124h121.324218c-.246094 14.585937-1.207031 29.070312-2.863281 43.238281-21.9375 1.457031-39.492187 19.109375-40.691406 41.039062zm-219.175781-141.207031c4.140624.535156 7.925781-2.378906 8.460937-6.519531 1.277344-9.851563 2.902344-19.523438 4.847656-28.960938 34.164063-8.261719 72.722657-12.882812 112.988281-13.394531v90.699219h-121.324218c.097656-5.8125.304687-11.621094.625-17.351563.234375-4.164062-2.953125-7.730468-7.117188-7.964844-4.160156-.230468-7.730468 2.953126-7.964844 7.117188-.339843 6.011719-.550781 12.105469-.652343 18.199219h-96.121094c4.492187-22.125 28.488281-43.773438 67.394531-60.351563 11.125-4.742187 23.15625-8.960937 35.917969-12.644531-1.371094 7.40625-2.570313 14.980469-3.574219 22.710937-.535156 4.136719 2.382813 7.925782 6.519532 8.460938zm277.839843 41.824219c-.40625-25.148438-2.847656-49.683594-7.175781-72.992188 12.757812 3.679688 24.78125 7.898438 35.90625 12.640625 38.90625 16.574219 62.898438 38.226563 67.390625 60.351563zm-15.109375 0h-121.324218v-90.699219c40.285156.511719 78.859374 5.136719 113.039062 13.40625 5.011719 24.464844 7.835938 50.496094 8.285156 77.292969zm-121.324218-105.808594v-126.101563c30.792968 3.363282 59.796874 27.25 82.351562 68.140626 11.371094 20.613281 20.425781 44.332031 26.945312 70.117187-33.5-7.488281-70.675781-11.671875-109.296874-12.15625zm-15.109376 0c-38.59375.480469-75.742187 4.660156-109.222656 12.136719 8.605469-33.921875 21.5-64.128906 37.652344-87.621094 20.949219-30.464844 45.554688-47.816406 71.570312-50.632812zm-136.433593 120.914063c.40625 25.152343 2.847656 49.6875 7.175781 72.996093-12.757812-3.683593-24.78125-7.902343-35.90625-12.640625-38.90625-16.578125-62.898438-38.226562-67.390625-60.355468zm15.109375 0h121.324218v90.703124c-40.285156-.515624-78.859374-5.140624-113.039062-13.410156-5.011719-24.464844-7.835938-50.492187-8.285156-77.292968zm121.324218 105.808593v126.105469c-30.792968-3.367188-59.796874-27.253906-82.351562-68.140625-11.371094-20.613281-20.425781-44.335937-26.945312-70.117187 33.5 7.488281 70.675781 11.671874 109.296874 12.152343zm228.882813-271.234375c0 15.679688-12.820313 28.4375-28.582031 28.4375-15.757813 0-28.582032-12.757812-28.582032-28.4375 0-15.683594 12.820313-28.4375 28.582032-28.4375 15.761718 0 28.582031 12.757813 28.582031 28.4375zm-64.742187-24.410156c-4.75 6.964844-7.527344 15.371094-7.527344 24.410156 0 24.011719 19.597656 43.542969 43.6875 43.542969 6.078125 0 11.871094-1.246094 17.132812-3.492187 13.058594 23.035156 22.152344 48.046874 26.972656 73.984374-13.109374-14.214843-32.730468-27.109374-58.210937-37.964843-13.875-5.910157-29.066406-11.046875-45.277344-15.367188-6.929687-30.046875-17.113281-57.675781-30.226562-81.449219-12.613281-22.867187-27.265625-40.953124-43.28125-53.78125 35.453125 9.03125 68.527343 26.0625 96.730469 50.117188zm-379.035157 13.839844c0-21.511719 17.585938-39.007813 39.199219-39.007813s39.195312 17.496094 39.195312 39.007813c0 21.507812-17.582031 39.007812-39.195312 39.007812s-39.199219-17.5-39.199219-39.007812zm14.097657 47.964844c7.515624 3.917968 16.046874 6.148437 25.101562 6.148437 29.941406 0 54.300781-24.273437 54.300781-54.113281 0-10.542969-3.050781-20.386719-8.304687-28.714844 23.792968-16.480469 49.976562-28.367188 77.609375-35.355469-33.113281 26.355469-59.695313 74.304688-73.707031 135.339844-16.21875 4.320313-31.410157 9.457031-45.289063 15.371094-25.480469 10.859375-45.097656 23.753906-58.210937 37.964843 5.007812-26.9375 14.613281-52.871093 28.5-76.640624zm25.101562 311.6875c-13.996094 0-25.382812-11.324219-25.382812-25.25 0-13.921876 11.386718-25.246094 25.382812-25.246094 13.992188 0 25.378906 11.324218 25.378906 25.246094 0 13.925781-11.386718 25.25-25.378906 25.25zm33.796875-3.0625c4.222656-6.371094 6.6875-13.996094 6.6875-22.1875 0-22.25-18.160156-40.351563-40.484375-40.351563-6.867188 0-13.335938 1.714844-19.007812 4.734375-17.253907-26.480469-28.941407-55.789062-34.625-86.539062 13.109374 14.226562 32.738281 27.136718 58.246093 38.003906 13.871094 5.910156 29.0625 11.042968 45.277344 15.363281 6.925781 30.046875 17.109375 57.675781 30.226563 81.449219 12.585937 22.816406 27.203124 40.875 43.175781 53.695312-32.441407-8.304687-63.011719-23.289062-89.496094-44.167968zm319.800781-18.523438c-31.125 31-69.273437 52.464844-110.867187 62.9375 13.1875-10.476562 25.476562-24.464844 36.410156-41.691406 2.234375-3.519532 1.191406-8.191406-2.332031-10.425782-3.523438-2.234374-8.191406-1.191406-10.421875 2.332032-21.425781 33.757812-48.015625 53.605468-75.582031 56.683594v-126.097657c27.527343-.34375 54.320312-2.566406 79.574218-6.527343 3.273438 10.773437 10.636719 19.785156 20.277344 25.257812-2.886719 8.058594-6.035156 15.855469-9.421875 23.214844-1.746094 3.789062-.089844 8.277344 3.699219 10.019531 1.023437.472656 2.097656.695313 3.15625.695313 2.855468 0 5.59375-1.628907 6.863281-4.394532 3.578125-7.769531 6.90625-15.988281 9.945313-24.472656 2.375.398438 4.808593.617188 7.296874.617188 24.089844 0 43.6875-19.53125 43.6875-43.542969 0-3.273438-.375-6.460938-1.066406-9.53125 2.390625-.941407 4.753906-1.902344 7.074219-2.890625 25.511719-10.871094 45.144531-23.785156 58.257813-38.015625-8.730469 47.398437-31.601563 91.023437-66.550782 125.832031zm0 0" fill="#18191b"/></svg>