<?xml version="1.0" encoding="iso-8859-1"?>
<!-- Generator: Adobe Illustrator 19.0.0, SVG Export Plug-In . SVG Version: 6.00 Build 0)  -->
<svg version="1.1" id="Capa_1" xmlns="http://www.w3.org/2000/svg" xmlns:xlink="http://www.w3.org/1999/xlink" x="0px" y="0px"
	 viewBox="0 0 511.999 511.999" style="enable-background:new 0 0 511.999 511.999;" xml:space="preserve">
<path style="fill:#2B84E9;" d="M476.867,372.396H95.285c-15.237,0-27.589-12.352-27.589-27.59V97.691
	c0-15.237,12.352-27.589,27.589-27.589h381.581c15.237,0,27.589,12.352,27.589,27.589v247.115
	C504.456,360.044,492.104,372.396,476.867,372.396z"/>
<rect x="244.27" y="369.96" style="fill:#363C44;" width="83.62" height="72.38"/>
<g>
	<rect x="244.27" y="369.96" style="fill:#292E33;" width="83.62" height="19.355"/>
	<rect x="244.27" y="426.23" style="fill:#292E33;" width="83.62" height="13.669"/>
</g>
<path style="fill:#555E6B;" d="M67.696,344.807c0,15.237,12.352,27.59,27.59,27.59h381.581c15.237,0,27.59-12.352,27.59-27.59
	v-57.421H67.696V344.807z"/>
<path style="fill:#2676C6;" d="M200.904,70.102H96.245c-15.237,0-27.59,12.352-27.59,27.59v247.115
	c0,15.237,12.352,27.59,27.59,27.59h104.659L200.904,70.102L200.904,70.102z"/>
<path style="fill:#434B56;" d="M68.656,287.385v57.421c0,15.237,12.352,27.59,27.59,27.59h104.659v-85.01L68.656,287.385
	L68.656,287.385z"/>
<path style="fill:#555E6B;" d="M158.796,470.451H20.273c-7.03,0-12.729-5.699-12.729-12.729V54.278
	c0-7.03,5.699-12.729,12.729-12.729h138.523c7.03,0,12.729,5.699,12.729,12.729v403.445
	C171.525,464.752,165.826,470.451,158.796,470.451z"/>
<path style="fill:#363C44;" d="M364.051,470.451h-155.95v-14.865c0-8.664,7.023-15.687,15.687-15.687h124.576
	c8.664,0,15.687,7.023,15.687,15.687V470.451z"/>
<circle style="fill:#FFE92F;" cx="286.08" cy="327.03" r="14.734"/>
<g>
	<path style="fill:#2E343A;" d="M55.904,388.543l-18.785-93.927c-0.289-1.446-0.921-2.802-1.842-3.953L7.544,256v193.328
		l46.259-52.906C55.69,394.265,56.466,391.353,55.904,388.543z"/>
	<path style="fill:#2E343A;" d="M123.166,388.543l18.785-93.927c0.289-1.446,0.921-2.802,1.842-3.953L171.525,256v193.328
		l-46.259-52.906C123.38,394.265,122.604,391.353,123.166,388.543z"/>
</g>
<circle style="fill:#FF7B05;" cx="87.56" cy="281.1" r="19.866"/>
<path style="fill:#2E343A;" d="M33.24,41.549l16.512,19.962c3.106,3.755,7.725,5.929,12.598,5.929h53.673
	c4.758,0,9.279-2.072,12.385-5.676l17.42-20.214H33.24V41.549z"/>
<g>
	<path style="fill:#707D8C;" d="M140.263,120.341H38.806c-3.074,0-5.566-2.492-5.566-5.566V99.828c0-3.074,2.492-5.566,5.566-5.566
		h101.457c3.074,0,5.566,2.492,5.566,5.566v14.946C145.829,117.849,143.337,120.341,140.263,120.341z"/>
	<path style="fill:#707D8C;" d="M140.263,174.759H38.806c-3.074,0-5.566-2.492-5.566-5.566v-14.946c0-3.074,2.492-5.566,5.566-5.566
		h101.457c3.074,0,5.566,2.492,5.566,5.566v14.946C145.829,172.267,143.337,174.759,140.263,174.759z"/>
</g>
<path d="M476.867,62.558H200.904c-4.167,0-7.544,3.377-7.544,7.544s3.377,7.544,7.544,7.544h275.963
	c11.053,0,20.045,8.993,20.045,20.045v182.151h-28.22c-4.167,0-7.544,3.377-7.544,7.544s3.377,7.544,7.544,7.544h28.22v49.877
	c0,11.053-8.993,20.045-20.045,20.045H327.885h-83.617H179.07V294.93h260.065c4.167,0,7.544-3.377,7.544-7.544
	s-3.377-7.544-7.544-7.544H179.069V256V54.277c0-11.178-9.095-20.272-20.273-20.272h-12.967H33.24H20.273
	C9.095,34.005,0,43.099,0,54.277V256v193.328v8.395c0,11.178,9.095,20.272,20.273,20.272h138.523
	c11.178,0,20.273-9.094,20.273-20.272v-8.395V379.94h57.654v52.414h-12.935c-12.81,0-23.232,10.422-23.232,23.232v14.865
	c0,4.167,3.377,7.544,7.544,7.544h155.951c4.167,0,7.544-3.377,7.544-7.544v-14.865c0-12.81-10.421-23.232-23.231-23.232h-12.936
	v-19.237c0-4.167-3.377-7.544-7.544-7.544s-7.544,3.377-7.544,7.544v19.237h-68.53V379.94h68.53v4.259
	c0,4.167,3.377,7.544,7.544,7.544s7.544-3.377,7.544-7.544v-4.259h141.438c19.372,0,35.133-15.761,35.133-35.133V97.691
	C512,78.319,496.239,62.558,476.867,62.558z M163.982,429.24l-33.035-37.781c-0.342-0.391-0.485-0.927-0.384-1.434
	c0.001-0.001,0.001-0.001,0.001-0.002l18.785-93.929c0.052-0.26,0.168-0.509,0.335-0.717l14.298-17.872L163.982,429.24
	L163.982,429.24z M129.369,49.093l-6.676,7.745c-1.674,1.943-4.105,3.057-6.67,3.057H62.351c-2.633,0-5.108-1.164-6.786-3.192
	l-6.294-7.61C49.271,49.093,129.369,49.093,129.369,49.093z M158.796,462.907H20.273c-2.859,0-5.185-2.326-5.185-5.184v-5.561
	l44.396-50.774c3.406-3.898,4.833-9.253,3.817-14.324L55.125,345c-0.816-4.085-4.79-6.735-8.877-5.918
	c-4.085,0.817-6.735,4.792-5.918,8.877l8.177,42.065c0.101,0.507-0.042,1.043-0.383,1.433L15.088,429.24V277.504l14.299,17.873
	c0.166,0.207,0.282,0.456,0.334,0.718l3.583,17.917c0.817,4.085,4.792,6.742,8.877,5.918c4.085-0.817,6.735-4.792,5.918-8.877
	l-3.583-17.915c-0.523-2.619-1.681-5.105-3.349-7.188l-26.08-32.596V54.277c0-2.858,2.326-5.184,5.185-5.184h9.417L43.94,66.32
	c4.555,5.505,11.265,8.663,18.411,8.663h53.673c6.959,0,13.556-3.023,18.099-8.294l15.164-17.596h9.509
	c2.859,0,5.185,2.326,5.185,5.184v199.076l-26.079,32.595c-1.669,2.084-2.827,4.571-3.35,7.187l-18.785,93.927
	c-1.015,5.072,0.412,10.427,3.818,14.325l44.395,50.773v5.561C163.982,460.581,161.656,462.907,158.796,462.907z M327.885,447.441
	h20.48c4.49,0,8.143,3.653,8.143,8.144v7.321H215.645v-7.321c0-4.491,3.653-8.144,8.144-8.144h20.479H327.885z"/>
<circle cx="466.29" cy="328.71" r="7.544"/>
<circle cx="439.13" cy="328.71" r="7.544"/>
<circle cx="412.31" cy="328.71" r="7.544"/>
<path d="M263.798,327.033c0,12.284,9.994,22.278,22.278,22.278s22.278-9.994,22.278-22.278c0-12.284-9.994-22.278-22.278-22.278
	C273.792,304.755,263.798,314.749,263.798,327.033z M293.266,327.033c0,3.964-3.226,7.19-7.19,7.19s-7.19-3.226-7.19-7.19
	s3.226-7.19,7.19-7.19S293.266,323.069,293.266,327.033z"/>
<path d="M72.135,433.402H54.323c-4.167,0-7.544,3.377-7.544,7.544s3.377,7.544,7.544,7.544h17.812c4.167,0,7.544-3.377,7.544-7.544
	S76.301,433.402,72.135,433.402z"/>
<path d="M118.914,433.402h-17.812c-4.167,0-7.544,3.377-7.544,7.544s3.377,7.544,7.544,7.544h17.812
	c4.167,0,7.544-3.377,7.544-7.544S123.081,433.402,118.914,433.402z"/>
<path d="M114.971,281.099c0-15.113-12.296-27.41-27.41-27.41s-27.41,12.296-27.41,27.41s12.296,27.41,27.41,27.41
	S114.971,296.213,114.971,281.099z M87.561,293.421c-6.794,0-12.322-5.527-12.322-12.322s5.527-12.322,12.322-12.322
	c6.794,0,12.322,5.527,12.322,12.322S94.356,293.421,87.561,293.421z"/>
<path d="M38.807,127.884h101.456c7.23,0,13.11-5.881,13.11-13.109V99.828c0-7.23-5.881-13.11-13.11-13.11H38.807
	c-7.23,0-13.11,5.881-13.11,13.11v14.946C25.696,122.003,31.577,127.884,38.807,127.884z M40.784,101.806h97.501v10.991H40.784
	V101.806z"/>
<path d="M153.373,169.193v-14.946c0-7.23-5.881-13.11-13.11-13.11H38.807c-7.23,0-13.11,5.881-13.11,13.11v14.946
	c0,7.229,5.881,13.109,13.11,13.109h101.456C147.492,182.303,153.373,176.422,153.373,169.193z M138.285,167.215H40.784v-10.991
	h97.501V167.215z"/>
<g>
</g>
<g>
</g>
<g>
</g>
<g>
</g>
<g>
</g>
<g>
</g>
<g>
</g>
<g>
</g>
<g>
</g>
<g>
</g>
<g>
</g>
<g>
</g>
<g>
</g>
<g>
</g>
<g>
</g>
</svg>
