<?xml version="1.0" encoding="utf-8"?>
<!-- Generator: Adobe Illustrator 23.0.3, SVG Export Plug-In . SVG Version: 6.00 Build 0)  -->
<svg version="1.1" id="Layer_1" xmlns="http://www.w3.org/2000/svg" xmlns:xlink="http://www.w3.org/1999/xlink" x="0px" y="0px"
	 viewBox="0 0 512 512" style="enable-background:new 0 0 512 512;" xml:space="preserve">
<style type="text/css">
	.st0{fill:#727272;}
</style>
<path class="st0" d="M504.1,50.9c-6.3-7.6-15.6-11.9-26.4-11.9c-5.9,0-12,1.2-18.4,3.7L25.9,208.1c-23,8.8-26.1,21.9-25.9,29
	c0.2,7.1,4,20,27.5,27.5c0.1,0,0.3,0.1,0.4,0.1l60.8,17.4l296-151.2c7.4-3.8,16.4-0.8,20.2,6.5c3,5.8,1.8,12.6-2.4,17.1l0,0
	L237.9,329.4l-4.7,19l58.8,47.3l81.4,65.6c0.1,0.1,0.1,0.1,0.2,0.2c9,7,18.8,10.6,28.3,10.6c18.7,0,33.6-13.8,37.9-35.2l71-350.6
	C513.7,72.3,511.3,59.7,504.1,50.9z"/>
<path class="st0" d="M209.7,318.4c0.6-2.4,1.8-4.7,3.6-6.7l108-114.8L120.9,299.4l45.5,130.1c2.6,7.4,6.5,13.7,11.2,18.7
	L209.7,318.4L209.7,318.4z"/>
<path d="M205.6,460.2c10.8-0.1,21.4-4.7,30.8-13.2l33.3-30.7l-44.4-35.7L205.6,460.2z"/>
</svg>
